<svg xmlns="http://www.w3.org/2000/svg" xmlns:xlink="http://www.w3.org/1999/xlink" width="500" zoomAndPan="magnify" viewBox="0 0 375 374.999991" height="500" preserveAspectRatio="xMidYMid meet" version="1.0"><defs><clipPath id="908a8eba2b"><path d="M 61.917969 90 L 296 90 L 296 325 L 61.917969 325 Z M 61.917969 90 " clip-rule="nonzero"/></clipPath><clipPath id="3d75359815"><path d="M 102 81 L 313.167969 81 L 313.167969 349.957031 L 102 349.957031 Z M 102 81 " clip-rule="nonzero"/></clipPath><clipPath id="cb51615bfd"><path d="M 68 25.207031 L 266 25.207031 L 266 281 L 68 281 Z M 68 25.207031 " clip-rule="nonzero"/></clipPath></defs><g clip-path="url(#908a8eba2b)"><path fill="#27bf3b" d="M 295.195312 207.570312 C 295.195312 271.972656 242.992188 324.179688 178.589844 324.179688 C 114.191406 324.179688 61.984375 271.972656 61.984375 207.570312 C 61.984375 143.167969 114.191406 90.964844 178.589844 90.964844 C 242.992188 90.964844 295.195312 143.167969 295.195312 207.570312 " fill-opacity="1" fill-rule="nonzero"/></g><g clip-path="url(#3d75359815)"><path fill="#000000" d="M 180.332031 221.921875 C 182.875 218.546875 186.585938 216.367188 190.78125 215.777344 C 191.53125 215.675781 192.277344 215.621094 193.023438 215.621094 C 196.4375 215.621094 199.742188 216.722656 202.511719 218.808594 C 205.886719 221.351562 208.066406 225.058594 208.652344 229.257812 C 209.246094 233.449219 208.167969 237.617188 205.628906 240.988281 C 203.082031 244.363281 199.371094 246.546875 195.179688 247.132812 C 190.984375 247.71875 186.816406 246.644531 183.445312 244.101562 C 180.074219 241.558594 177.890625 237.851562 177.304688 233.65625 C 176.714844 229.460938 177.789062 225.292969 180.332031 221.921875 Z M 297.984375 242.714844 C 307.835938 224.757812 313.039062 204.441406 313.039062 183.832031 C 313.039062 143.179688 292.929688 105.257812 259.246094 82.398438 C 256.914062 80.816406 253.742188 81.425781 252.160156 83.753906 C 250.574219 86.089844 251.183594 89.261719 253.515625 90.847656 C 284.394531 111.804688 302.828125 146.566406 302.828125 183.832031 C 302.828125 203.269531 297.785156 222.417969 288.246094 239.21875 C 287.683594 240.207031 287.464844 241.351562 287.632812 242.480469 L 298.65625 317.582031 L 234.722656 288.808594 C 233.480469 288.253906 232.070312 288.210938 230.796875 288.699219 C 217.957031 293.632812 204.40625 296.136719 190.53125 296.136719 C 178.324219 296.136719 166.398438 294.207031 154.984375 290.398438 L 182.613281 253.753906 C 187.453125 256 192.945312 256.613281 198.214844 255.46875 C 203.960938 254.21875 209.078125 250.949219 212.613281 246.257812 L 246.074219 201.878906 C 247.527344 199.953125 247.140625 197.203125 245.214844 195.75 C 243.289062 194.296875 240.539062 194.683594 239.085938 196.609375 L 216.9375 225.984375 C 215.984375 221.792969 213.957031 217.921875 211.039062 214.765625 L 229.933594 189.707031 C 231.386719 187.78125 231 185.035156 229.074219 183.582031 C 228.144531 182.875 226.992188 182.582031 225.832031 182.742188 C 224.675781 182.90625 223.648438 183.507812 222.949219 184.441406 L 204.050781 209.503906 C 200.214844 207.566406 195.9375 206.679688 191.648438 206.914062 L 213.792969 177.539062 C 214.496094 176.605469 214.796875 175.457031 214.632812 174.296875 C 214.472656 173.140625 213.867188 172.117188 212.933594 171.410156 C 212 170.710938 210.851562 170.410156 209.695312 170.574219 C 208.535156 170.734375 207.511719 171.335938 206.808594 172.269531 L 173.347656 216.65625 C 169.808594 221.34375 168.070312 227.160156 168.453125 233.03125 C 168.800781 238.414062 170.902344 243.523438 174.394531 247.558594 L 143.78125 288.160156 C 142.804688 288.710938 142 289.574219 141.546875 290.691406 C 141.449219 290.933594 141.375 291.183594 141.3125 291.433594 L 104.140625 340.738281 C 103.164062 342.035156 102.625 343.5625 102.625 345.039062 C 102.628906 346.640625 103.285156 348.050781 104.425781 348.910156 C 105.203125 349.5 106.140625 349.777344 107.117188 349.777344 C 108.972656 349.777344 110.976562 348.765625 112.359375 346.933594 L 148.53125 298.953125 C 161.957031 303.859375 176.066406 306.34375 190.53125 306.34375 C 204.945312 306.34375 219.035156 303.867188 232.449219 298.980469 L 302.96875 330.71875 C 303.636719 331.015625 304.351562 331.164062 305.058594 331.164062 C 306.152344 331.164062 307.234375 330.8125 308.136719 330.132812 C 309.625 329.007812 310.382812 327.164062 310.109375 325.320312 L 297.984375 242.714844 " fill-opacity="1" fill-rule="nonzero"/></g><g clip-path="url(#cb51615bfd)"><path fill="#000000" d="M 113.535156 279.132812 C 114.480469 279.894531 115.613281 280.265625 116.742188 280.265625 C 118.230469 280.265625 119.703125 279.617188 120.710938 278.371094 C 122.484375 276.179688 122.144531 272.96875 119.953125 271.191406 C 93.4375 249.742188 78.226562 217.902344 78.226562 183.832031 C 78.226562 121.910156 128.605469 71.535156 190.53125 71.535156 C 200.46875 71.535156 210.273438 72.824219 219.757812 75.375 L 178.085938 130.640625 C 177.835938 130.972656 177.632812 131.328125 177.46875 131.691406 C 166.8125 126.71875 153.738281 129.683594 146.378906 139.441406 L 132.316406 158.09375 C 132.25 158.179688 132.1875 158.273438 132.132812 158.367188 C 132.054688 158.445312 131.988281 158.53125 131.917969 158.617188 C 123.46875 169.832031 125.710938 185.824219 136.921875 194.273438 C 148.128906 202.730469 164.125 200.484375 172.578125 189.273438 L 187.039062 170.09375 C 194.398438 160.335938 193.648438 146.953125 185.933594 138.074219 C 186.242188 137.816406 186.523438 137.519531 186.773438 137.1875 L 264.09375 34.632812 C 265.90625 32.234375 265.425781 28.824219 263.027344 27.015625 C 260.628906 25.207031 257.21875 25.6875 255.410156 28.085938 L 226.335938 66.648438 C 214.769531 63.117188 202.746094 61.324219 190.53125 61.324219 C 173.992188 61.324219 157.949219 64.5625 142.839844 70.953125 C 128.25 77.125 115.152344 85.957031 103.902344 97.207031 C 92.652344 108.457031 83.820312 121.558594 77.648438 136.144531 C 71.257812 151.253906 68.019531 167.300781 68.019531 183.832031 C 68.019531 221 84.609375 255.734375 113.535156 279.132812 " fill-opacity="1" fill-rule="nonzero"/></g></svg>